<svg width="83" height="83" viewBox="0 0 83 83" fill="none" xmlns="http://www.w3.org/2000/svg">
<circle cx="41.1228" cy="41.8772" r="34.3318" fill="white"/>
<path d="M1.41928 41.5828C1.93388 25.4808 9.12998 13.147 24.1613 5.67703C33.7063 0.92113 43.8157 0.489529 54.0413 3.84273C55.2116 4.22453 55.3361 4.67273 54.5144 5.55253C53.8827 6.24992 53.4649 7.11428 53.3109 8.04253C52.9623 9.81873 52.9623 9.81873 51.1114 9.25433C45.8625 7.67505 40.3093 7.39027 34.9264 8.42433C28.141 9.663 21.9013 12.96 17.0546 17.8676C12.2079 22.7752 8.98906 29.0556 7.83518 35.8558C5.92618 47.8161 9.28768 58.2658 18.3596 66.7484C23.767 71.7971 30.723 74.8685 38.097 75.4634C47.0113 76.3348 55.9075 73.6373 62.8367 67.962C69.766 62.2867 74.1632 54.0963 75.0652 45.185C76.1525 33.1915 71.9859 23.19 62.5488 15.305C61.7188 14.5995 61.7188 14.1098 62.5488 13.4624C63.4782 12.7863 64.1185 11.7845 64.3416 10.657C64.5242 9.57803 64.8479 9.44523 65.7526 10.159C69.6309 13.1714 72.9417 16.8504 75.53 21.0237C79.4076 27.244 81.4237 34.4443 81.34 41.7737C81.428 51.8678 77.5713 61.5974 70.5915 68.8898C61.9595 78.0198 51.1778 82.3358 38.3792 81.5473C29.7703 81.0494 21.5815 77.6598 15.1392 71.9276C7.40416 65.3541 2.49941 56.0529 1.44418 45.9569C1.34867 44.5007 1.34035 43.0401 1.41928 41.5828Z" fill="#FF4081"/>
<path d="M55.801 8.07935C55.8006 7.27824 56.1125 6.50854 56.6704 5.93361C57.2282 5.35868 57.9882 5.0238 58.789 5.00005C59.6163 4.99542 60.4126 5.31525 61.0069 5.89092C61.6012 6.46659 61.9462 7.25224 61.9679 8.07935C61.9625 8.49023 61.8758 8.89598 61.7128 9.27319C61.5498 9.6504 61.3137 9.99159 61.0182 10.2771C60.7227 10.5626 60.3735 10.7868 59.9909 10.9366C59.6083 11.0865 59.1998 11.1592 58.789 11.1504C57.9862 11.1372 57.2212 10.8068 56.6613 10.2314C56.1014 9.65592 55.7921 8.8822 55.801 8.07935Z" fill="#5C3D79"/>
<path d="M62.9998 42.5133C62.9998 29.7033 53.0598 21 41.9998 21C31.0565 21 20.9998 29.5167 20.9998 42.6533C19.5998 43.4467 18.6665 44.94 18.6665 46.6667V51.3333C18.6665 53.9 20.7665 56 23.3332 56C24.6165 56 25.6665 54.95 25.6665 53.6667V42.4433C25.6665 33.5067 32.5498 25.69 41.4865 25.4333C43.6737 25.3668 45.8519 25.74 47.8922 26.5308C49.9325 27.3216 51.7932 28.5139 53.3642 30.037C54.9353 31.5602 56.1845 33.3832 57.0381 35.398C57.8916 37.4128 58.332 39.5785 58.3332 41.7667V58.3333H41.9998C40.7165 58.3333 39.6665 59.3833 39.6665 60.6667C39.6665 61.95 40.7165 63 41.9998 63H58.3332C60.8998 63 62.9998 60.9 62.9998 58.3333V55.4867C64.3765 54.7633 65.3332 53.34 65.3332 51.66V46.2933C65.3332 44.66 64.3765 43.2367 62.9998 42.5133Z" fill="#444444"/>
<path d="M34.9998 46.6667C36.2885 46.6667 37.3332 45.622 37.3332 44.3333C37.3332 43.0447 36.2885 42 34.9998 42C33.7112 42 32.6665 43.0447 32.6665 44.3333C32.6665 45.622 33.7112 46.6667 34.9998 46.6667Z" fill="#444444"/>
<path d="M48.9998 46.6667C50.2885 46.6667 51.3332 45.622 51.3332 44.3333C51.3332 43.0447 50.2885 42 48.9998 42C47.7112 42 46.6665 43.0447 46.6665 44.3333C46.6665 45.622 47.7112 46.6667 48.9998 46.6667Z" fill="#444444"/>
<path d="M56.0001 39.7367C55.4437 36.4563 53.7447 33.4786 51.2038 31.3306C48.6629 29.1825 45.444 28.0027 42.1168 28C35.0468 28 27.4401 33.8567 28.0468 43.05C30.9241 41.8726 33.4653 40.0015 35.444 37.6035C37.4226 35.2055 38.7771 32.3552 39.3868 29.3067C42.4434 35.4433 48.7201 39.6667 56.0001 39.7367Z" fill="#FF4081"/>
</svg>
