<svg width="83" height="83" viewBox="0 0 83 83" fill="none" xmlns="http://www.w3.org/2000/svg">
<circle cx="41.1228" cy="41.8772" r="34.3318" fill="white"/>
<path d="M1.41928 41.5828C1.93388 25.4808 9.12998 13.147 24.1613 5.67703C33.7063 0.92113 43.8157 0.489529 54.0413 3.84273C55.2116 4.22453 55.3361 4.67273 54.5144 5.55253C53.8827 6.24992 53.4649 7.11428 53.3109 8.04253C52.9623 9.81873 52.9623 9.81873 51.1114 9.25433C45.8625 7.67505 40.3093 7.39027 34.9264 8.42433C28.141 9.663 21.9013 12.96 17.0546 17.8676C12.2079 22.7752 8.98906 29.0556 7.83518 35.8558C5.92618 47.8161 9.28768 58.2658 18.3596 66.7484C23.767 71.7971 30.723 74.8685 38.097 75.4634C47.0113 76.3348 55.9075 73.6373 62.8367 67.962C69.766 62.2867 74.1632 54.0963 75.0652 45.185C76.1525 33.1915 71.9859 23.19 62.5488 15.305C61.7188 14.5995 61.7188 14.1098 62.5488 13.4624C63.4782 12.7863 64.1185 11.7845 64.3416 10.657C64.5242 9.57803 64.8479 9.44523 65.7526 10.159C69.6309 13.1714 72.9417 16.8504 75.53 21.0237C79.4076 27.244 81.4237 34.4443 81.34 41.7737C81.428 51.8678 77.5713 61.5974 70.5915 68.8898C61.9595 78.0198 51.1778 82.3358 38.3792 81.5473C29.7703 81.0494 21.5815 77.6598 15.1392 71.9276C7.40416 65.3541 2.49941 56.0529 1.44418 45.9569C1.34867 44.5007 1.34035 43.0401 1.41928 41.5828Z" fill="#FFD740"/>
<path d="M55.801 8.62366C55.8006 7.82256 56.1125 7.05285 56.6704 6.47792C57.2282 5.903 57.9882 5.56811 58.789 5.54436C59.6163 5.53973 60.4126 5.85956 61.0069 6.43523C61.6012 7.0109 61.9462 7.79656 61.9679 8.62366C61.9625 9.03454 61.8758 9.44029 61.7128 9.8175C61.5498 10.1947 61.3137 10.5359 61.0182 10.8214C60.7227 11.1069 60.3735 11.3311 59.9909 11.4809C59.6083 11.6308 59.1998 11.7035 58.789 11.6947C57.9862 11.6815 57.2212 11.3512 56.6613 10.7757C56.1014 10.2002 55.7921 9.42651 55.801 8.62366Z" fill="#5C3D79"/>
<g clip-path="url(#clip0_114_406)">
<path d="M18.75 28.0001C18.2859 28.0001 17.8408 28.1844 17.5126 28.5126C17.1844 28.8408 17 29.2859 17 29.7501C17 30.2142 17.1844 30.6593 17.5126 30.9875C17.8408 31.3157 18.2859 31.5001 18.75 31.5001H22.635L27.227 49.8751C27.6172 51.4326 29.012 52.5001 30.6168 52.5001H52.4392C54.0195 52.5001 55.3618 51.4501 55.7765 49.9276L60.3125 33.2501H56.648L52.4375 49.0001H30.615L26.0247 30.6251C25.8351 29.8712 25.398 29.2028 24.7834 28.7269C24.1688 28.2509 23.4123 27.995 22.635 28.0001H18.75ZM50.25 52.5001C47.3713 52.5001 45 54.8713 45 57.7501C45 60.6288 47.3713 63.0001 50.25 63.0001C53.1287 63.0001 55.5 60.6288 55.5 57.7501C55.5 54.8713 53.1287 52.5001 50.25 52.5001ZM34.5 52.5001C31.6213 52.5001 29.25 54.8713 29.25 57.7501C29.25 60.6288 31.6213 63.0001 34.5 63.0001C37.3787 63.0001 39.75 60.6288 39.75 57.7501C39.75 54.8713 37.3787 52.5001 34.5 52.5001ZM39.75 28.0001V33.2501H34.5V36.7501H39.75V42.0001H43.25V36.7501H48.5V33.2501H43.25V28.0001H39.75ZM34.5 56.0001C35.487 56.0001 36.25 56.7631 36.25 57.7501C36.25 58.7371 35.487 59.5001 34.5 59.5001C33.513 59.5001 32.75 58.7371 32.75 57.7501C32.75 56.7631 33.513 56.0001 34.5 56.0001ZM50.25 56.0001C51.237 56.0001 52 56.7631 52 57.7501C52 58.7371 51.237 59.5001 50.25 59.5001C49.263 59.5001 48.5 58.7371 48.5 57.7501C48.5 56.7631 49.263 56.0001 50.25 56.0001Z" fill="#444444"/>
<rect x="32" y="25" width="19" height="17" fill="white"/>
<path d="M49 34H43V28H41V34H35V36H41V42H43V36H49V34Z" fill="#FFD740"/>
<circle cx="34.5" cy="57.5" r="2.5" fill="#FFD740"/>
<circle cx="50.5" cy="57.5" r="2.5" fill="#FFD740"/>
</g>
<defs>
<clipPath id="clip0_114_406">
<rect width="44" height="38" fill="white" transform="translate(17 25)"/>
</clipPath>
</defs>
</svg>
