<svg width="83" height="83" viewBox="0 0 83 83" fill="none" xmlns="http://www.w3.org/2000/svg">
<g clip-path="url(#clip0_114_438)">
<circle cx="41.1228" cy="41.8772" r="34.3318" fill="white"/>
<path d="M1.41928 41.5828C1.93388 25.4808 9.12998 13.147 24.1613 5.67703C33.7063 0.92113 43.8157 0.489529 54.0413 3.84273C55.2116 4.22453 55.3361 4.67273 54.5144 5.55253C53.8827 6.24992 53.4649 7.11428 53.3109 8.04253C52.9623 9.81873 52.9623 9.81873 51.1114 9.25433C45.8625 7.67505 40.3093 7.39027 34.9264 8.42433C28.141 9.663 21.9013 12.96 17.0546 17.8676C12.2079 22.7752 8.98906 29.0556 7.83518 35.8558C5.92618 47.8161 9.28768 58.2658 18.3596 66.7484C23.767 71.7971 30.723 74.8685 38.097 75.4634C47.0113 76.3348 55.9075 73.6373 62.8367 67.962C69.766 62.2867 74.1632 54.0963 75.0652 45.185C76.1525 33.1915 71.9859 23.19 62.5488 15.305C61.7188 14.5995 61.7188 14.1098 62.5488 13.4624C63.4782 12.7863 64.1185 11.7845 64.3416 10.657C64.5242 9.57803 64.8479 9.44523 65.7526 10.159C69.6309 13.1714 72.9417 16.8504 75.53 21.0237C79.4076 27.244 81.4237 34.4443 81.34 41.7737C81.428 51.8678 77.5713 61.5974 70.5915 68.8898C61.9595 78.0198 51.1778 82.3358 38.3792 81.5473C29.7703 81.0494 21.5815 77.6598 15.1392 71.9276C7.40416 65.3541 2.49941 56.0529 1.44418 45.9569C1.34867 44.5007 1.34035 43.0401 1.41928 41.5828Z" fill="#F7644E"/>
<path d="M55.801 8.62366C55.8006 7.82256 56.1125 7.05285 56.6704 6.47792C57.2282 5.903 57.9882 5.56811 58.789 5.54436C59.6163 5.53973 60.4126 5.85956 61.0069 6.43523C61.6012 7.0109 61.9462 7.79656 61.9679 8.62366C61.9625 9.03454 61.8758 9.44029 61.7128 9.8175C61.5498 10.1947 61.3137 10.5359 61.0182 10.8214C60.7227 11.1069 60.3735 11.3311 59.9909 11.4809C59.6083 11.6308 59.1998 11.7035 58.789 11.6947C57.9862 11.6815 57.2212 11.3512 56.6613 10.7757C56.1014 10.2002 55.7921 9.42651 55.801 8.62366Z" fill="#5C3D79"/>
<path d="M54.2773 46.5662H44.2153V49.1258H54.2773V46.5662Z" fill="#444444"/>
<path d="M56.1308 41.8H44.2153V44.3597H56.1308V41.8Z" fill="#F7644E"/>
<path d="M49.2463 51.1558H44.2153V53.7154H49.2463V51.1558Z" fill="#F7644E"/>
<path d="M58.0723 23H22.1493C18.2657 23 15 26.5305 15 30.8554V52.7446C15 57.1577 18.1775 60.6 22.1493 60.6H58.0723C61.9559 60.6 65.2216 57.0695 65.2216 52.7446V30.8554C65.2216 26.5305 61.9559 23 58.0723 23ZM22.1493 25.8244H58.0723C60.4554 25.8244 62.3972 28.1192 62.3972 30.9437V32.2676H17.8244V30.9437C17.8244 28.1192 19.7662 25.8244 22.1493 25.8244ZM58.0723 57.7756H22.1493C19.7662 57.7756 17.8244 55.4808 17.8244 52.6563V35.0038H62.3972V52.7446C62.3972 55.569 60.4554 57.7756 58.0723 57.7756Z" fill="#444444"/>
<path d="M45.274 31.1201C46.249 31.1201 47.0393 30.3298 47.0393 29.3549C47.0393 28.3799 46.249 27.5896 45.274 27.5896C44.2991 27.5896 43.5088 28.3799 43.5088 29.3549C43.5088 30.3298 44.2991 31.1201 45.274 31.1201Z" fill="#444444"/>
<path d="M50.7467 31.1201C51.7216 31.1201 52.512 30.3298 52.512 29.3549C52.512 28.3799 51.7216 27.5896 50.7467 27.5896C49.7718 27.5896 48.9814 28.3799 48.9814 29.3549C48.9814 30.3298 49.7718 31.1201 50.7467 31.1201Z" fill="#F7644E"/>
<path d="M56.3951 31.1201C57.3701 31.1201 58.1604 30.3298 58.1604 29.3549C58.1604 28.3799 57.3701 27.5896 56.3951 27.5896C55.4202 27.5896 54.6299 28.3799 54.6299 29.3549C54.6299 30.3298 55.4202 31.1201 56.3951 31.1201Z" fill="#F7644E"/>
<path d="M28.8572 51.3323C28.2394 51.3323 27.6215 50.9792 27.3568 50.4496L27.0037 49.92C26.9154 49.8318 26.9154 49.8318 26.9154 49.8318L24.6206 54.6862L26.6507 54.2449L27.7098 55.8337L29.8281 51.4205C29.8281 51.3323 28.8572 51.3323 28.8572 51.3323Z" fill="#444444"/>
<path d="M35.7416 50.4497C35.3886 50.9793 34.859 51.3324 34.1529 51.3324L33.0938 51.4206L35.2121 55.7455L36.2712 54.1568L38.3013 54.5981L36.0064 49.9202L35.7416 50.4497Z" fill="#444444"/>
<path d="M37.4189 44.6244L36.8011 43.5652V42.4178C36.8011 42.153 36.6245 41.8882 36.448 41.7117L35.3889 41.0938L34.771 40.0347C34.5945 39.8582 34.418 39.6816 34.0649 39.6816H32.8292L31.7701 39.0638C31.5936 38.8873 31.2405 38.8873 30.9757 39.0638L29.9166 39.6816H28.7691C28.5044 39.6816 28.2396 39.8582 28.063 40.0347L27.4452 41.0938L26.386 41.7117C26.2095 41.8882 26.033 42.0647 26.033 42.4178V43.6535L25.5917 44.6244C25.5034 44.7126 25.5034 44.8891 25.5034 44.9774C25.5034 45.1539 25.5917 45.2422 25.5917 45.3305L26.1213 46.3896V47.6253C26.1213 47.8901 26.2978 48.1549 26.4743 48.3314L27.5335 48.9492L28.1513 50.0084C28.3278 50.1849 28.5044 50.3614 28.8574 50.3614H30.0048L31.064 50.9793C31.1522 51.0675 31.3288 51.0675 31.417 51.0675C31.5053 51.0675 31.6818 50.9793 31.7701 50.9793L32.8292 50.3614H34.0649C34.3297 50.3614 34.5945 50.1849 34.771 50.0084L35.3889 48.9492L36.448 48.3314C36.6245 48.1549 36.8011 47.9783 36.8011 47.6253V46.3896L37.4189 45.3305C37.5072 45.0657 37.5072 44.8009 37.4189 44.6244ZM33.8884 44.6244L32.8292 45.6835L33.094 47.0957C33.094 47.184 33.094 47.2722 33.0058 47.2722C32.9175 47.2722 32.9175 47.3605 32.9175 47.3605H32.8292L31.5053 46.6544L30.1814 47.2722C30.0931 47.3605 30.0048 47.3605 30.0048 47.2722C30.0048 47.184 29.9166 47.184 29.9166 47.0957L30.1814 45.6835L29.1222 44.6244C29.0339 44.5361 29.0339 44.4478 29.0339 44.4478C29.0339 44.3596 29.1222 44.3596 29.2105 44.2713L30.6227 44.0948L31.3288 42.7708C31.417 42.5943 31.5936 42.5943 31.6818 42.7708L32.3879 44.0948L33.8001 44.2713C33.8884 44.2713 33.9767 44.3596 33.9767 44.4478C33.9767 44.4478 33.8884 44.5361 33.8884 44.6244Z" fill="#F7644E"/>
</g>
<defs>
<clipPath id="clip0_114_438">
<rect width="83" height="83" fill="white"/>
</clipPath>
</defs>
</svg>
