<svg width="83" height="83" viewBox="0 0 83 83" fill="none" xmlns="http://www.w3.org/2000/svg">
<circle cx="41.1228" cy="41.8772" r="34.3318" fill="white"/>
<path d="M1.41928 41.5828C1.93388 25.4808 9.12998 13.147 24.1613 5.67703C33.7063 0.92113 43.8157 0.489529 54.0413 3.84273C55.2116 4.22453 55.3361 4.67273 54.5144 5.55253C53.8827 6.24992 53.4649 7.11428 53.3109 8.04253C52.9623 9.81873 52.9623 9.81873 51.1114 9.25433C45.8625 7.67505 40.3093 7.39027 34.9264 8.42433C28.141 9.663 21.9013 12.96 17.0546 17.8676C12.2079 22.7752 8.98906 29.0556 7.83518 35.8558C5.92618 47.8161 9.28768 58.2658 18.3596 66.7484C23.767 71.7971 30.723 74.8685 38.097 75.4634C47.0113 76.3348 55.9075 73.6373 62.8367 67.962C69.766 62.2867 74.1632 54.0963 75.0652 45.185C76.1525 33.1915 71.9859 23.19 62.5488 15.305C61.7188 14.5995 61.7188 14.1098 62.5488 13.4624C63.4782 12.7863 64.1185 11.7845 64.3416 10.657C64.5242 9.57803 64.8479 9.44523 65.7526 10.159C69.6309 13.1714 72.9417 16.8504 75.53 21.0237C79.4076 27.244 81.4237 34.4443 81.34 41.7737C81.428 51.8678 77.5713 61.5974 70.5915 68.8898C61.9595 78.0198 51.1778 82.3358 38.3792 81.5473C29.7703 81.0494 21.5815 77.6598 15.1392 71.9276C7.40416 65.3541 2.49941 56.0529 1.44418 45.9569C1.34867 44.5007 1.34035 43.0401 1.41928 41.5828Z" fill="#40C4FF"/>
<path d="M55.8015 8.07935C55.8011 7.27824 56.113 6.50854 56.6708 5.93361C57.2287 5.35868 57.9887 5.0238 58.7895 5.00005C59.6168 4.99542 60.4131 5.31525 61.0074 5.89092C61.6016 6.46659 61.9467 7.25224 61.9684 8.07935C61.963 8.49023 61.8763 8.89598 61.7133 9.27319C61.5503 9.6504 61.3142 9.99159 61.0187 10.2771C60.7231 10.5626 60.374 10.7868 59.9914 10.9366C59.6088 11.0865 59.2003 11.1592 58.7895 11.1504C57.9867 11.1372 57.2217 10.8068 56.6618 10.2314C56.1019 9.65592 55.7926 8.8822 55.8015 8.07935Z" fill="#5C3D79"/>
<path d="M31.8029 42.6134C31.3762 42.1014 31.3762 41.3334 31.8029 40.8214L35.0456 37.0667C35.5576 36.4694 36.4109 36.4694 36.9229 36.9814C37.4349 37.4934 37.5202 38.3467 37.0936 38.8587L34.6189 41.6747L37.0936 44.4907C37.6056 45.088 37.5202 45.9414 36.9229 46.368C36.3256 46.7947 35.4722 46.7947 35.0456 46.2827L31.8029 42.6134Z" fill="#40C4FF"/>
<path d="M46.8212 46.2826L50.0639 42.5279C50.4905 42.0159 50.4905 41.2479 50.0639 40.7359L46.8212 36.9813C46.3092 36.3839 45.4559 36.3839 44.9439 36.8959C44.3465 37.4079 44.2612 38.2613 44.7732 38.8586L47.2479 41.6746L44.7732 44.4906C44.2612 45.0879 44.3465 45.9413 44.8585 46.3679C45.4559 46.9653 46.3092 46.8799 46.8212 46.2826Z" fill="#40C4FF"/>
<path d="M43.5785 35.1041C44.2612 35.3601 44.6025 36.1281 44.3465 36.8107L39.9092 47.6481C39.6532 48.3307 38.7998 48.6721 38.1172 48.4161C37.4345 48.1601 37.0932 47.3921 37.3492 46.7094L41.7865 35.7867C42.1278 35.1894 42.8958 34.8481 43.5785 35.1041Z" fill="#444444"/>
<path d="M38.2027 25.4613C37.4347 25.4613 36.8374 26.0586 36.8374 26.8266C36.8374 27.5946 37.4347 28.192 38.2027 28.192H43.6641C44.4321 28.192 45.0294 27.5946 45.0294 26.8266C45.0294 26.0586 44.4321 25.4613 43.6641 25.4613H38.2027Z" fill="#40C4FF"/>
<path fill-rule="evenodd" clip-rule="evenodd" d="M55.8667 26.8267C55.8667 23.072 52.7947 20 49.04 20H32.8267C29.072 20 26 23.072 26 26.8267V56.7787C26 60.5333 29.072 63.6053 32.8267 63.6053H49.04C52.7947 63.6053 55.8667 60.5333 55.8667 56.7787V26.8267ZM49.04 22.816C51.2587 22.816 53.136 24.608 53.136 26.912V56.864C53.136 59.0827 51.344 60.96 49.04 60.96H32.8267C30.608 60.96 28.7307 59.168 28.7307 56.864V26.8267C28.7307 24.608 30.5227 22.7307 32.8267 22.7307C32.8267 22.816 49.04 22.816 49.04 22.816Z" fill="#444444"/>
</svg>
