<svg width="83" height="83" viewBox="0 0 83 83" fill="none" xmlns="http://www.w3.org/2000/svg">
<circle cx="41.1228" cy="41.8772" r="34.3318" fill="white"/>
<path d="M1.41928 41.5828C1.93388 25.4808 9.12998 13.147 24.1613 5.67703C33.7063 0.92113 43.8157 0.489529 54.0413 3.84273C55.2116 4.22453 55.3361 4.67273 54.5144 5.55253C53.8827 6.24992 53.4649 7.11428 53.3109 8.04253C52.9623 9.81873 52.9623 9.81873 51.1114 9.25433C45.8625 7.67505 40.3093 7.39027 34.9264 8.42433C28.141 9.663 21.9013 12.96 17.0546 17.8676C12.2079 22.7752 8.98906 29.0556 7.83518 35.8558C5.92618 47.8161 9.28768 58.2658 18.3596 66.7484C23.767 71.7971 30.723 74.8685 38.097 75.4634C47.0113 76.3348 55.9075 73.6373 62.8367 67.962C69.766 62.2867 74.1632 54.0963 75.0652 45.185C76.1525 33.1915 71.9859 23.19 62.5488 15.305C61.7188 14.5995 61.7188 14.1098 62.5488 13.4624C63.4782 12.7863 64.1185 11.7845 64.3416 10.657C64.5242 9.57803 64.8479 9.44523 65.7526 10.159C69.6309 13.1714 72.9417 16.8504 75.53 21.0237C79.4076 27.244 81.4237 34.4443 81.34 41.7737C81.428 51.8678 77.5713 61.5974 70.5915 68.8898C61.9595 78.0198 51.1778 82.3358 38.3792 81.5473C29.7703 81.0494 21.5815 77.6598 15.1392 71.9276C7.40416 65.3541 2.49941 56.0529 1.44418 45.9569C1.34867 44.5007 1.34035 43.0401 1.41928 41.5828Z" fill="#FFD740"/>
<path d="M55.801 8.62378C55.8006 7.82268 56.1125 7.05297 56.6704 6.47804C57.2282 5.90312 57.9882 5.56824 58.789 5.54448C59.6163 5.53986 60.4126 5.85968 61.0069 6.43535C61.6012 7.01102 61.9462 7.79668 61.9679 8.62378C61.9625 9.03467 61.8758 9.44042 61.7128 9.81762C61.5498 10.1948 61.3137 10.536 61.0182 10.8215C60.7227 11.107 60.3735 11.3312 59.9909 11.4811C59.6083 11.631 59.1998 11.7036 58.789 11.6948C57.9862 11.6817 57.2212 11.3513 56.6613 10.7758C56.1014 10.2004 55.7921 9.42664 55.801 8.62378Z" fill="#5C3D79"/>
<path d="M46.1791 27.9874C46.1791 27.9874 45.7874 28.1049 45.1216 28.3204C45.0041 27.9679 44.8474 27.5174 44.6124 27.0866C43.8682 25.657 42.7716 24.9129 41.4399 24.8933C41.342 24.8933 41.2637 24.8933 41.1657 24.9129C41.1266 24.8737 41.0874 24.8149 41.0482 24.7758C40.4803 24.1491 39.7362 23.8554 38.8549 23.8749C37.1512 23.9337 35.4474 25.1674 34.057 27.3608C33.0778 28.9079 32.3532 30.8466 32.1378 32.3349C30.1795 32.942 28.8087 33.3729 28.7695 33.3729C27.7707 33.6862 27.7512 33.7254 27.6141 34.6458C27.5162 35.3508 24.9312 55.4041 24.9312 55.4041L46.4337 59.1249V27.9483C46.3357 27.9483 46.2378 27.9679 46.1791 27.9874ZM41.2049 29.5345C40.0691 29.887 38.8157 30.2787 37.582 30.6508C37.9345 29.2995 38.6003 27.9679 39.4228 27.0866C39.7362 26.7537 40.1474 26.4012 40.6566 26.1858C41.1266 27.1845 41.2245 28.5749 41.2049 29.5345ZM38.8745 25.0108C39.2662 25.0108 39.6187 25.0891 39.9124 25.2849C39.4424 25.5199 39.0116 25.8724 38.5807 26.3229C37.5037 27.4783 36.6616 29.2995 36.3287 31.0424C35.2907 31.3558 34.292 31.6691 33.352 31.9629C33.9395 29.2016 36.2503 25.0891 38.8745 25.0108ZM35.5946 40.7071C35.7121 42.5283 40.5295 42.9396 40.8037 47.2283C41.0191 50.5967 39.0216 52.9075 36.1233 53.0837C32.6766 53.2992 30.7575 51.2625 30.7575 51.2625L31.482 48.1488C31.482 48.1488 33.4012 49.5979 34.9287 49.5C35.9275 49.4412 36.2307 48.5695 36.2112 48.0016C36.0545 45.6124 32.1378 45.7495 31.9028 41.8329C31.6874 38.5233 33.9104 35.2433 38.6887 34.93C40.5491 34.8125 41.4891 35.2825 41.4891 35.2825L40.3925 39.3754C40.3925 39.3754 39.1783 38.8271 37.7291 38.9054C35.6141 39.0425 35.575 40.3742 35.5946 40.7071ZM42.3407 29.182C42.3212 28.3204 42.2232 27.1062 41.812 26.0683C43.1045 26.3229 43.7507 27.772 44.0249 28.6533C43.5353 28.8099 42.9674 28.9862 42.3407 29.182ZM47.1387 59.0466L56.0687 56.8337C56.0687 56.8337 52.2303 30.8662 52.2107 30.6899C52.1912 30.5137 52.0345 30.4158 51.8974 30.3962C51.7603 30.3766 49.2537 30.3374 49.2537 30.3374C49.2537 30.3374 47.7262 28.8491 47.1387 28.2812V59.0466Z" fill="#444444"/>
<path d="M47 59.1242V28L49.2222 30.0207H52.5556L57 56.7943L47 59.1242Z" fill="#FFD740"/>
</svg>
