<svg width="83" height="83" viewBox="0 0 83 83" fill="none" xmlns="http://www.w3.org/2000/svg">
<circle cx="41.1228" cy="41.8772" r="34.3318" fill="white"/>
<path d="M1.41928 41.5828C1.93388 25.4808 9.12998 13.147 24.1613 5.67703C33.7063 0.92113 43.8157 0.489529 54.0413 3.84273C55.2116 4.22453 55.3361 4.67273 54.5144 5.55253C53.8827 6.24992 53.4649 7.11428 53.3109 8.04253C52.9623 9.81873 52.9623 9.81873 51.1114 9.25433C45.8625 7.67505 40.3093 7.39027 34.9264 8.42433C28.141 9.663 21.9013 12.96 17.0546 17.8676C12.2079 22.7752 8.98906 29.0556 7.83518 35.8558C5.92618 47.8161 9.28768 58.2658 18.3596 66.7484C23.767 71.7971 30.723 74.8685 38.097 75.4634C47.0113 76.3348 55.9075 73.6373 62.8367 67.962C69.766 62.2867 74.1632 54.0963 75.0652 45.185C76.1525 33.1915 71.9859 23.19 62.5488 15.305C61.7188 14.5995 61.7188 14.1098 62.5488 13.4624C63.4782 12.7863 64.1185 11.7845 64.3416 10.657C64.5242 9.57803 64.8479 9.44523 65.7526 10.159C69.6309 13.1714 72.9417 16.8504 75.53 21.0237C79.4076 27.244 81.4237 34.4443 81.34 41.7737C81.428 51.8678 77.5713 61.5974 70.5915 68.8898C61.9595 78.0198 51.1778 82.3358 38.3792 81.5473C29.7703 81.0494 21.5815 77.6598 15.1392 71.9276C7.40416 65.3541 2.49941 56.0529 1.44418 45.9569C1.34867 44.5007 1.34035 43.0401 1.41928 41.5828Z" fill="#40C4FF"/>
<path d="M55.8015 8.07935C55.8011 7.27824 56.113 6.50854 56.6708 5.93361C57.2287 5.35868 57.9887 5.0238 58.7895 5.00005C59.6168 4.99542 60.4131 5.31525 61.0074 5.89092C61.6016 6.46659 61.9467 7.25224 61.9684 8.07935C61.963 8.49023 61.8763 8.89598 61.7133 9.27319C61.5503 9.6504 61.3142 9.99159 61.0187 10.2771C60.7231 10.5626 60.374 10.7868 59.9914 10.9366C59.6088 11.0865 59.2003 11.1592 58.7895 11.1504C57.9867 11.1372 57.2217 10.8068 56.6618 10.2314C56.1019 9.65592 55.7926 8.8822 55.8015 8.07935Z" fill="#5C3D79"/>
<path d="M41.9999 24.5C38.0787 24.4999 34.2455 25.6622 30.9846 27.8399C27.7237 30.0176 25.1815 33.113 23.6793 36.735C22.1771 40.357 21.7822 44.343 22.5445 48.1894C23.3069 52.0358 25.1923 55.5698 27.9625 58.345C28.2811 58.6752 28.4573 59.1173 28.4531 59.5762C28.4489 60.035 28.2647 60.4739 27.9401 60.7982C27.6154 61.1225 27.1764 61.3063 26.7176 61.3101C26.2587 61.3139 25.8168 61.1373 25.4869 60.8183C23.3213 58.6544 21.6042 56.0844 20.4338 53.2555C19.2635 50.4267 18.6629 47.3947 18.6665 44.3333C18.6665 31.4463 29.1129 21 41.9999 21C54.8869 21 65.3332 31.4463 65.3332 44.3333C65.3368 47.3947 64.7363 50.4267 63.5659 53.2555C62.3955 56.0844 60.6784 58.6544 58.5129 60.8183C58.1829 61.1373 57.741 61.3139 57.2821 61.3101C56.8233 61.3063 56.3843 61.1225 56.0597 60.7982C55.735 60.4739 55.5508 60.035 55.5466 59.5762C55.5424 59.1173 55.7186 58.6752 56.0372 58.345C58.8074 55.5698 60.6928 52.0358 61.4552 48.1894C62.2175 44.343 61.8226 40.357 60.3204 36.735C58.8182 33.113 56.276 30.0176 53.0151 27.8399C49.7542 25.6622 45.921 24.4999 41.9999 24.5Z" fill="#444444"/>
<path d="M41.9997 32.6667C39.6918 32.6667 37.4358 33.3512 35.5171 34.6336C33.5983 35.916 32.103 37.7386 31.2203 39.871C30.3376 42.0034 30.1071 44.3496 30.5581 46.613C31.009 48.8764 32.1211 50.9551 33.7537 52.5863C34.0726 52.9162 34.2492 53.3582 34.2454 53.8171C34.2417 54.2759 34.0578 54.7149 33.7335 55.0395C33.4092 55.3642 32.9704 55.5484 32.5115 55.5526C32.0527 55.5568 31.6106 55.3806 31.2803 55.062C29.1578 52.9415 27.7119 50.2391 27.1255 47.2966C26.5391 44.3542 26.8386 41.3039 27.9861 38.5317C29.1336 35.7596 31.0776 33.39 33.572 31.7228C36.0665 30.0556 38.9994 29.1658 41.9997 29.1658C45 29.1658 47.9329 30.0556 50.4273 31.7228C52.9218 33.39 54.8657 35.7596 56.0132 38.5317C57.1607 41.3039 57.4602 44.3542 56.8739 47.2966C56.2875 50.2391 54.8416 52.9415 52.719 55.062C52.3873 55.3711 51.9485 55.5394 51.4951 55.5314C51.0418 55.5234 50.6092 55.3398 50.2886 55.0191C49.9679 54.6985 49.7843 54.2659 49.7763 53.8126C49.7683 53.3592 49.9366 52.9204 50.2457 52.5887C51.8791 50.9576 52.9919 48.8786 53.4433 46.6148C53.8947 44.3511 53.6644 42.0043 52.7816 39.8715C51.8988 37.7386 50.4031 35.9156 48.4838 34.6331C46.5646 33.3506 44.308 32.6662 41.9997 32.6667Z" fill="#40C4FF"/>
<path d="M41.9998 38.5C40.4527 38.5 38.969 39.1146 37.875 40.2085C36.7811 41.3025 36.1665 42.7862 36.1665 44.3333C36.1665 45.8804 36.7811 47.3642 37.875 48.4581C38.969 49.5521 40.4527 50.1667 41.9998 50.1667C43.5469 50.1667 45.0307 49.5521 46.1246 48.4581C47.2186 47.3642 47.8332 45.8804 47.8332 44.3333C47.8332 42.7862 47.2186 41.3025 46.1246 40.2085C45.0307 39.1146 43.5469 38.5 41.9998 38.5ZM39.6665 44.3333C39.6665 43.7145 39.9123 43.121 40.3499 42.6834C40.7875 42.2458 41.381 42 41.9998 42C42.6187 42 43.2122 42.2458 43.6498 42.6834C44.0873 43.121 44.3332 43.7145 44.3332 44.3333C44.3332 44.9522 44.0873 45.5457 43.6498 45.9832C43.2122 46.4208 42.6187 46.6667 41.9998 46.6667C41.381 46.6667 40.7875 46.4208 40.3499 45.9832C39.9123 45.5457 39.6665 44.9522 39.6665 44.3333Z" fill="#444444"/>
<circle cx="42" cy="44" r="3" fill="#40C4FF"/>
</svg>
