<svg width="83" height="83" viewBox="0 0 83 83" fill="none" xmlns="http://www.w3.org/2000/svg">
<circle cx="41.1228" cy="41.8772" r="34.3318" fill="white"/>
<path d="M1.41928 41.5828C1.93388 25.4808 9.12998 13.147 24.1613 5.67703C33.7063 0.92113 43.8157 0.489529 54.0413 3.84273C55.2116 4.22453 55.3361 4.67273 54.5144 5.55253C53.8827 6.24992 53.4649 7.11428 53.3109 8.04253C52.9623 9.81873 52.9623 9.81873 51.1114 9.25433C45.8625 7.67505 40.3093 7.39027 34.9264 8.42433C28.141 9.663 21.9013 12.96 17.0546 17.8676C12.2079 22.7752 8.98906 29.0556 7.83518 35.8558C5.92618 47.8161 9.28768 58.2658 18.3596 66.7484C23.767 71.7971 30.723 74.8685 38.097 75.4634C47.0113 76.3348 55.9075 73.6373 62.8367 67.962C69.766 62.2867 74.1632 54.0963 75.0652 45.185C76.1525 33.1915 71.9859 23.19 62.5488 15.305C61.7188 14.5995 61.7188 14.1098 62.5488 13.4624C63.4782 12.7863 64.1185 11.7845 64.3416 10.657C64.5242 9.57803 64.8479 9.44523 65.7526 10.159C69.6309 13.1714 72.9417 16.8504 75.53 21.0237C79.4076 27.244 81.4237 34.4443 81.34 41.7737C81.428 51.8678 77.5713 61.5974 70.5915 68.8898C61.9595 78.0198 51.1778 82.3358 38.3792 81.5473C29.7703 81.0494 21.5815 77.6598 15.1392 71.9276C7.40416 65.3541 2.49941 56.0529 1.44418 45.9569C1.34867 44.5007 1.34035 43.0401 1.41928 41.5828Z" fill="#FF4081"/>
<path d="M55.801 8.07935C55.8006 7.27824 56.1125 6.50854 56.6704 5.93361C57.2282 5.35868 57.9882 5.0238 58.789 5.00005C59.6163 4.99542 60.4126 5.31525 61.0069 5.89092C61.6012 6.46659 61.9462 7.25224 61.9679 8.07935C61.9625 8.49023 61.8758 8.89598 61.7128 9.27319C61.5498 9.6504 61.3137 9.99159 61.0182 10.2771C60.7227 10.5626 60.3735 10.7868 59.9909 10.9366C59.6083 11.0865 59.1998 11.1592 58.789 11.1504C57.9862 11.1372 57.2212 10.8068 56.6613 10.2314C56.1014 9.65592 55.7921 8.8822 55.801 8.07935Z" fill="#5C3D79"/>
<path d="M41.4803 44.1416H41.3184V44.2226H41.4803V44.1416Z" fill="#FF4081"/>
<path d="M62.8563 29.324C62.8563 39.0404 62.8563 48.6759 62.8563 58.3114V58.3923C62.6944 59.6879 61.6417 60.8214 60.2652 61.0643C60.1033 61.0643 59.9414 61.1453 59.7794 61.1453C47.391 61.1453 35.0025 61.1453 22.6141 61.1453H22.5331C21.1566 60.9834 20.023 60.0927 19.6991 58.8781C19.6182 58.7162 19.6182 58.4733 19.6182 58.3114C19.6182 48.6759 19.6182 38.9595 19.6182 29.324V29.243C19.7801 27.9475 20.5898 27.0568 21.9663 26.571C22.2902 26.49 22.6141 26.4091 22.9379 26.4091C35.1645 26.4091 47.31 26.4091 59.5365 26.4091C59.6175 26.4091 59.6985 26.4091 59.7794 26.4091C61.075 26.49 62.2085 27.2997 62.6944 28.5143C62.7753 28.7572 62.7753 29.0001 62.8563 29.324ZM60.1033 36.3684C47.4719 36.3684 34.8406 36.3684 22.2092 36.3684C22.2092 36.4494 22.2092 36.4494 22.2092 36.5303C22.2092 43.6557 22.2092 50.8621 22.2092 57.9875C22.2092 58.3923 22.5331 58.7162 23.0189 58.7162C35.1645 58.7162 47.229 58.7162 59.3746 58.7162C59.7794 58.7162 60.1843 58.4733 60.1843 57.9875C60.1843 50.8621 60.1843 43.7367 60.1843 36.5303C60.1033 36.5303 60.1033 36.4494 60.1033 36.3684ZM60.1033 33.8583C60.1033 33.7774 60.1033 33.7774 60.1033 33.6964C60.1033 32.3199 60.1033 30.9434 60.1033 29.6479C60.1033 29.162 59.6985 28.9191 59.3746 28.9191C47.229 28.9191 35.0835 28.9191 23.0189 28.9191C22.5331 28.9191 22.2902 29.162 22.2902 29.6479C22.2902 31.0244 22.2902 32.4009 22.2902 33.6964C22.2902 33.7774 22.2902 33.7774 22.2902 33.8583C34.9216 33.8583 47.4719 33.8583 60.1033 33.8583Z" fill="#444444"/>
<path d="M38.4846 54.9917C37.5129 54.9917 36.8652 54.101 37.27 53.2913C39.0514 49.1618 40.8327 45.0323 42.695 40.9028C42.938 40.336 43.5047 40.0122 44.0715 40.0931C44.7193 40.1741 45.2051 40.5789 45.2861 41.1457C45.3671 41.3886 45.2861 41.6316 45.2051 41.8745C44.3954 43.8178 43.5047 45.761 42.695 47.7043C41.8044 49.8905 40.8327 51.9958 39.8611 54.182C39.5372 54.6678 39.0514 54.9917 38.4846 54.9917Z" fill="#FF4081"/>
<path d="M27.1484 47.5424C27.1484 46.6517 27.4723 45.923 28.1201 45.3562C29.4156 44.1416 30.7921 42.9271 32.1686 41.6316C32.5735 41.3077 33.0593 41.1457 33.5451 41.3077C34.0309 41.4696 34.3548 41.7935 34.4358 42.2793C34.5167 42.6842 34.3548 43.089 34.0309 43.4129C33.2212 44.2226 32.3305 44.9513 31.5208 45.761C31.035 46.1659 30.6302 46.5707 30.1443 47.0566C29.8205 47.3804 29.8205 47.7043 30.1443 48.0282C31.4399 49.2428 32.7354 50.4573 34.0309 51.5909C34.5977 52.0767 34.5977 52.8055 34.1119 53.2913C33.6261 53.7771 32.7354 53.8581 32.1686 53.2913C31.5208 52.7245 30.954 52.1577 30.3873 51.6719C29.6585 51.0241 28.9298 50.2954 28.2011 49.6476C27.4723 49.0808 27.1484 48.3521 27.1484 47.5424Z" fill="#FF4081"/>
<path d="M55.2448 47.5423C55.2448 48.352 54.9209 49.0807 54.2731 49.6475C52.8966 50.8621 51.6011 52.1576 50.2246 53.3722C49.8198 53.777 49.253 53.858 48.6862 53.6151C48.2003 53.3722 47.8765 52.9673 47.8765 52.4005C47.8765 52.0767 48.0384 51.7528 48.2813 51.5099C49.5768 50.3763 50.7914 49.1617 52.0869 48.0281C52.0869 48.0281 52.1679 47.9472 52.2489 47.9472C52.4918 47.7043 52.4918 47.2994 52.2489 47.0565C51.844 46.7326 51.4392 46.3278 51.1153 46.0039C50.2246 45.1942 49.253 44.3035 48.3623 43.4938C47.7955 43.008 47.7955 42.1983 48.2813 41.7125C48.8481 41.2266 49.6578 41.1457 50.2246 41.7125C51.1962 42.6031 52.1679 43.4938 53.1395 44.3845C53.5444 44.7084 53.8683 45.0322 54.2731 45.4371C54.9209 45.9229 55.2448 46.7326 55.2448 47.5423Z" fill="#FF4081"/>
<path d="M26.3385 31.3482C26.3385 31.996 25.7717 32.5628 25.043 32.5628C24.3143 32.5628 23.6665 31.996 23.6665 31.3482C23.6665 30.6195 24.2333 30.1337 25.043 30.1337C25.7717 30.1337 26.3385 30.7005 26.3385 31.3482Z" fill="#FF4081"/>
<path d="M29.0108 32.6437C28.282 32.6437 27.6343 32.077 27.6343 31.3482C27.6343 30.7005 28.282 30.1337 29.0108 30.1337C29.7395 30.1337 30.3873 30.7005 30.3873 31.3482C30.3873 32.077 29.7395 32.6437 29.0108 32.6437Z" fill="#FF4081"/>
</svg>
