<svg width="83" height="83" viewBox="0 0 83 83" fill="none" xmlns="http://www.w3.org/2000/svg">
<circle cx="41.1228" cy="41.8772" r="34.3318" fill="white"/>
<path d="M1.41928 41.5828C1.93388 25.4808 9.12998 13.147 24.1613 5.67703C33.7063 0.92113 43.8157 0.489529 54.0413 3.84273C55.2116 4.22453 55.3361 4.67273 54.5144 5.55253C53.8827 6.24992 53.4649 7.11428 53.3109 8.04253C52.9623 9.81873 52.9623 9.81873 51.1114 9.25433C45.8625 7.67505 40.3093 7.39027 34.9264 8.42433C28.141 9.663 21.9013 12.96 17.0546 17.8676C12.2079 22.7752 8.98906 29.0556 7.83518 35.8558C5.92618 47.8161 9.28768 58.2658 18.3596 66.7484C23.767 71.7971 30.723 74.8685 38.097 75.4634C47.0113 76.3348 55.9075 73.6373 62.8367 67.962C69.766 62.2867 74.1632 54.0963 75.0652 45.185C76.1525 33.1915 71.9859 23.19 62.5488 15.305C61.7188 14.5995 61.7188 14.1098 62.5488 13.4624C63.4782 12.7863 64.1185 11.7845 64.3416 10.657C64.5242 9.57803 64.8479 9.44523 65.7526 10.159C69.6309 13.1714 72.9417 16.8504 75.53 21.0237C79.4076 27.244 81.4237 34.4443 81.34 41.7737C81.428 51.8678 77.5713 61.5974 70.5915 68.8898C61.9595 78.0198 51.1778 82.3358 38.3792 81.5473C29.7703 81.0494 21.5815 77.6598 15.1392 71.9276C7.40416 65.3541 2.49941 56.0529 1.44418 45.9569C1.34867 44.5007 1.34035 43.0401 1.41928 41.5828Z" fill="#F7644E"/>
<path d="M55.801 8.62378C55.8006 7.82268 56.1125 7.05297 56.6704 6.47804C57.2282 5.90312 57.9882 5.56824 58.789 5.54448C59.6163 5.53986 60.4126 5.85968 61.0069 6.43535C61.6012 7.01102 61.9462 7.79668 61.9679 8.62378C61.9625 9.03467 61.8758 9.44042 61.7128 9.81762C61.5498 10.1948 61.3137 10.536 61.0182 10.8215C60.7227 11.107 60.3735 11.3312 59.9909 11.4811C59.6083 11.631 59.1998 11.7036 58.789 11.6948C57.9862 11.6817 57.2212 11.3513 56.6613 10.7758C56.1014 10.2004 55.7921 9.42664 55.801 8.62378Z" fill="#5C3D79"/>
<path d="M37.5 36.75H30.5" stroke="#F7644E" stroke-width="1.5" stroke-linecap="round" stroke-linejoin="round"/>
<path d="M47.125 40.25C45.9647 40.25 44.8519 39.7891 44.0314 38.9686C43.2109 38.1481 42.75 37.0353 42.75 35.875C42.75 34.7147 43.2109 33.6019 44.0314 32.7814C44.8519 31.9609 45.9647 31.5 47.125 31.5C48.2853 31.5 49.3981 31.9609 50.2186 32.7814C51.0391 33.6019 51.5 34.7147 51.5 35.875C51.5 37.0353 51.0391 38.1481 50.2186 38.9686C49.3981 39.7891 48.2853 40.25 47.125 40.25Z" fill="#F7644E"/>
<path d="M30.5 31.5H35.75" stroke="#444444" stroke-width="1.5" stroke-linecap="round" stroke-linejoin="round"/>
<path d="M51.5 52.5L43.625 47.25L39.25 50.75L30.5 43.75" stroke="#444444" stroke-width="1.5" stroke-linecap="round" stroke-linejoin="round"/>
<path d="M25.25 56.7V27.3C25.25 27.0215 25.3606 26.7545 25.5575 26.5575C25.7545 26.3606 26.0215 26.25 26.3 26.25H55.7C55.9785 26.25 56.2455 26.3606 56.4425 26.5575C56.6394 26.7545 56.75 27.0215 56.75 27.3V56.7C56.75 56.9785 56.6394 57.2455 56.4425 57.4425C56.2455 57.6394 55.9785 57.75 55.7 57.75H26.3C26.0215 57.75 25.7545 57.6394 25.5575 57.4425C25.3606 57.2455 25.25 56.9785 25.25 56.7V56.7Z" stroke="#444444" stroke-width="2"/>
</svg>
